<svg version="1.1" id="Layer_1" xmlns="http://www.w3.org/2000/svg" xmlns:xlink="http://www.w3.org/1999/xlink" x="0px" y="0px"
	 width="100%" viewBox="0 0 2000 475" enable-background="new 0 0 2000 475" xml:space="preserve">
<path fill="#FFFFFF" opacity="1.000000" stroke="none" 
	d="
M632.000000,1.000000 
	C870.696045,1.000000 1109.392090,1.000000 1348.544067,1.468657 
	C1349.000000,47.797523 1349.000000,93.657730 1349.000000,140.294800 
	C1340.687134,129.060928 1331.363281,120.434525 1319.989624,113.963013 
	C1296.127563,100.385826 1270.184937,99.670258 1244.256592,103.321510 
	C1219.560669,106.799171 1197.421021,117.663757 1178.532104,134.127899 
	C1160.168701,150.134079 1146.875610,169.788940 1138.963135,192.964584 
	C1132.090088,213.096298 1130.346558,233.664108 1133.219604,254.974655 
	C1135.374512,254.974655 1137.337646,255.007431 1139.299316,254.969788 
	C1173.766235,254.308395 1202.110352,277.965057 1206.370972,311.447540 
	C1208.044556,324.599609 1205.374878,336.872955 1200.966797,349.057251 
	C1200.472290,350.424377 1200.887329,353.281738 1201.811890,353.806122 
	C1206.560547,356.499725 1211.499878,358.945374 1216.581299,360.948212 
	C1234.247192,367.911194 1252.554443,370.635712 1271.599854,370.145691 
	C1292.267944,369.613922 1311.162964,364.653656 1328.186768,352.577423 
	C1331.261230,350.396423 1331.203003,348.986694 1329.794800,346.410980 
	C1321.692627,331.592438 1313.593628,316.772186 1305.627319,302.197235 
	C1299.478882,303.847687 1293.687012,306.308044 1287.725586,306.829254 
	C1271.232300,308.271210 1255.085815,306.786682 1240.460693,297.837341 
	C1227.348877,289.813965 1217.363525,279.082581 1210.923340,264.984406 
	C1204.590210,251.120270 1202.950073,236.816208 1206.026855,221.986740 
	C1209.793335,203.832047 1219.281128,189.115524 1234.051758,178.063629 
	C1247.567627,167.950607 1262.994019,164.224472 1279.890259,164.866974 
	C1296.330200,165.492111 1310.660400,171.168808 1322.907227,181.574844 
	C1340.857666,196.827316 1348.953735,216.885803 1348.951904,240.273987 
	C1348.951538,245.027451 1348.055054,249.780258 1348.044312,254.534424 
	C1347.963257,290.528320 1347.997314,326.522522 1348.010132,362.516632 
	C1348.010620,363.950348 1348.159546,365.384003 1348.232300,366.693054 
	C1371.671875,366.693054 1394.740112,366.693054 1418.000000,366.693054 
	C1418.000000,244.590744 1418.000000,122.795372 1418.000000,1.000000 
	C1612.313721,1.000000 1806.627563,1.000000 2000.970703,1.000000 
	C2000.970703,159.297821 2000.970703,317.595673 2000.970703,475.946747 
	C1334.435913,475.946747 667.871887,475.946747 1.153928,475.946747 
	C1.153928,317.785370 1.153928,159.570511 1.153928,1.000000 
	C187.695892,1.000000 374.392029,1.000000 561.544067,1.468657 
	C562.000000,123.505630 562.000000,245.073944 562.000000,366.773834 
	C585.515625,366.773834 608.579468,366.773834 632.000000,366.773834 
	C632.000000,346.430511 632.092468,326.310455 631.911560,306.192810 
	C631.880432,302.728912 632.951294,300.408966 635.356873,298.020874 
	C698.684570,235.152496 761.939880,172.211105 825.231628,109.306473 
	C826.452148,108.093369 827.959717,107.168999 829.333313,106.109917 
	C802.663330,105.000038 776.878296,105.354935 751.114258,104.774475 
	C743.793457,104.609535 738.619873,107.013939 733.759705,111.722046 
	C713.865112,130.994186 693.929749,150.224167 674.022156,169.482864 
	C662.811279,180.328339 651.661133,191.236954 640.400452,202.030350 
	C637.894897,204.431839 635.039612,206.468445 632.000000,208.955688 
	C632.000000,139.248749 632.000000,70.124374 632.000000,1.000000 
M224.017303,134.524506 
	C220.688400,131.197815 217.408401,127.820442 214.022156,124.553185 
	C198.922348,109.984039 180.174042,103.085320 159.900345,101.279617 
	C144.556488,99.913002 128.923447,100.120476 113.707802,104.004936 
	C83.735664,111.656647 58.190403,126.688454 38.779804,150.909775 
	C21.420071,172.571945 11.179067,197.538345 9.133928,225.339218 
	C7.891674,242.225983 9.521982,259.005096 14.689050,275.324280 
	C20.624281,294.069519 30.129732,310.623169 42.881691,325.653564 
	C52.668556,337.189087 64.307083,346.174622 77.210632,353.472137 
	C90.833908,361.176666 105.366829,366.569641 121.051529,369.266144 
	C134.260971,371.537140 147.500168,371.926758 160.523270,370.684631 
	C178.826508,368.938904 195.787125,362.423279 210.111557,349.896088 
	C206.739120,343.876617 203.361389,337.844940 199.981018,331.814758 
	C195.177673,323.246185 190.459320,314.627808 185.500046,306.150421 
	C184.410599,304.288147 183.327988,301.758545 179.875168,303.488251 
	C168.386551,309.243530 155.715240,309.409515 143.723801,307.662872 
	C123.681519,304.743561 107.290764,294.660339 95.149544,277.806763 
	C83.740494,261.969574 79.416206,244.429642 82.197655,225.538651 
	C85.010391,206.435135 94.205841,190.463821 109.875946,178.612839 
	C120.094261,170.884918 131.564301,165.536072 144.178909,164.198578 
	C160.822830,162.433853 176.958359,164.881638 191.571594,174.122086 
	C206.786575,183.743057 218.139725,196.421249 223.986115,213.635147 
	C227.778351,224.800858 228.153702,236.391296 228.012924,248.044098 
	C227.641495,278.789612 227.468262,309.538208 226.938614,340.280792 
	C226.702515,353.984833 221.967682,366.402954 215.032547,378.160767 
	C200.866669,402.177582 173.751572,417.663574 143.512817,412.067566 
	C120.162682,407.746338 101.457123,396.655212 88.350769,376.175873 
	C69.004921,384.631958 49.518208,393.149597 29.881216,401.732941 
	C30.108341,402.533783 30.178719,403.386475 30.565369,404.056702 
	C39.971672,420.362091 52.035877,434.253632 67.098312,445.689667 
	C101.199471,471.580780 139.435303,480.042847 181.239731,472.941772 
	C211.664734,467.773621 237.320419,453.531952 258.604034,431.037048 
	C271.057251,417.875031 280.466431,402.990448 287.257080,386.318512 
	C293.275360,371.542908 297.738220,356.158478 297.820526,340.277649 
	C298.218597,263.464172 298.000000,186.647537 298.000000,109.832016 
	C298.000000,108.251900 298.000000,106.671783 298.000000,105.358963 
	C274.221558,105.358963 251.153458,105.358963 227.861145,105.358963 
	C227.861145,116.633812 227.861145,127.550949 227.861145,138.699997 
	C226.608093,137.313126 225.577011,136.171951 224.017303,134.524506 
M1619.500000,213.000015 
	C1594.411011,213.000015 1569.322144,213.000015 1543.995972,213.000015 
	C1544.195312,213.976135 1544.166016,214.504013 1544.396851,214.866104 
	C1554.537720,230.773972 1564.950562,246.517532 1574.664795,262.681030 
	C1576.757202,266.162628 1578.555664,267.073883 1582.192383,267.064056 
	C1620.523926,266.960541 1658.855713,267.000000 1697.187500,267.000000 
	C1701.667847,267.000000 1706.148193,267.000000 1710.552002,267.000000 
	C1725.704590,203.542664 1694.718506,135.312164 1627.232910,109.404243 
	C1560.686768,83.857040 1484.329468,113.081284 1453.994141,182.294815 
	C1426.879517,244.159988 1449.970337,318.444305 1511.287964,352.955780 
	C1573.340088,387.880585 1652.528198,368.854614 1689.669678,313.183594 
	C1689.305298,312.856445 1688.992432,312.404175 1688.563599,312.215118 
	C1669.020996,303.600494 1649.485962,294.967377 1629.865845,286.532227 
	C1628.845581,286.093658 1626.638184,286.947235 1625.748047,287.907715 
	C1618.894165,295.303589 1611.537720,302.461304 1601.512329,304.535248 
	C1592.439697,306.412109 1582.958252,306.584839 1573.636475,306.903381 
	C1565.198975,307.191681 1557.486694,303.964600 1550.374390,299.754974 
	C1541.937500,294.761353 1534.378052,288.724915 1528.197632,280.852661 
	C1519.268799,269.479675 1513.417114,256.647888 1512.235962,242.543686 
	C1510.158081,217.729752 1517.630615,196.020172 1537.125977,179.376114 
	C1554.086670,164.896164 1573.642456,160.846680 1595.052612,165.604004 
	C1610.719116,169.085129 1622.565552,178.701477 1631.655151,191.484497 
	C1636.139893,197.791443 1639.255127,205.072281 1643.583862,213.000015 
	C1634.727783,213.000015 1627.613892,213.000015 1619.500000,213.000015 
M515.962402,162.362335 
	C524.638977,146.769897 533.315613,131.177444 542.012329,115.548828 
	C527.276855,107.634087 511.537750,102.454689 495.097809,101.317604 
	C482.043152,100.414688 468.678986,101.455482 455.656433,103.177422 
	C432.650635,106.219406 414.920685,118.876724 400.007690,137.219391 
	C400.007690,126.123856 400.007690,115.756607 400.007690,105.213272 
	C375.854614,105.213272 352.118805,105.213272 328.218201,105.213272 
	C328.218201,192.493332 328.218201,279.560089 328.218201,366.773254 
	C352.172638,366.773254 375.908508,366.773254 400.000000,366.773254 
	C400.000000,364.765167 400.000000,362.966309 400.000000,361.167450 
	C400.000000,317.169800 399.911072,273.171783 400.113861,229.175049 
	C400.138885,223.739716 400.959381,218.049576 402.726318,212.931534 
	C407.176056,200.042770 414.559692,189.074036 425.186066,180.136566 
	C435.809265,171.201797 447.875000,165.569092 461.389893,164.197433 
	C477.850433,162.526794 494.016449,164.424927 508.750275,174.340027 
	C511.091949,170.413315 513.307678,166.697800 515.962402,162.362335 
M1080.480591,367.000275 
	C1084.564819,367.000275 1088.649048,367.000275 1093.027100,367.000275 
	C1089.117554,360.828888 1084.730103,355.498962 1082.057983,349.415680 
	C1068.705078,319.017242 1077.255737,282.771637 1106.394409,264.698364 
	C1109.089722,263.026520 1110.217285,261.155304 1110.074097,257.866119 
	C1109.255127,239.040436 1109.354736,220.146133 1107.758423,201.392929 
	C1106.695801,188.909225 1104.340454,176.318420 1100.752319,164.317108 
	C1095.200928,145.748795 1084.776611,130.021164 1068.376099,118.893173 
	C1051.594971,107.506989 1032.603271,102.348465 1012.757751,101.239639 
	C998.660583,100.451996 984.347412,99.705086 970.298889,102.982765 
	C954.990356,106.554413 941.030945,112.714241 929.126160,123.254036 
	C926.427734,125.643112 927.020935,127.564163 928.489319,130.018707 
	C930.717773,133.743500 932.855652,137.522507 935.027466,141.281128 
	C940.955627,151.540436 946.881470,161.801086 952.802917,172.051987 
	C968.945496,163.548065 981.490051,162.403305 1002.879089,165.052170 
	C1020.479492,167.231873 1031.357910,178.165985 1034.827515,194.849335 
	C1036.777466,204.225143 1037.800537,213.955002 1037.863647,223.534424 
	C1038.166748,269.513733 1037.999878,315.496124 1037.999878,361.477417 
	C1037.999878,363.242920 1037.999878,365.008423 1037.999878,367.000275 
	C1052.210083,367.000275 1065.847900,367.000275 1080.480591,367.000275 
M915.000000,363.344360 
	C915.000000,277.272461 915.000000,191.200562 915.000000,105.346451 
	C890.583557,105.346451 866.847412,105.346451 843.345093,105.346451 
	C843.345093,192.756104 843.345093,279.819092 843.345093,366.999847 
	C866.346497,366.999847 889.002930,366.989502 911.659363,367.018250 
	C913.606140,367.020691 915.477844,367.189087 915.000000,363.344360 
M1853.454590,288.034668 
	C1844.204834,314.173248 1834.955078,340.311859 1825.578979,366.807373 
	C1846.629517,366.807373 1867.081299,366.807373 1887.398193,366.807373 
	C1923.159790,279.558655 1958.889282,192.388077 1994.707886,105.000061 
	C1970.404663,105.000061 1946.579956,105.042458 1922.755859,104.941742 
	C1920.043213,104.930283 1918.719360,105.636391 1917.922607,108.375778 
	C1916.400635,113.607658 1914.445923,118.716476 1912.598389,123.850304 
	C1900.594238,157.208221 1888.541870,190.548737 1876.564575,223.916245 
	C1868.975708,245.057816 1861.489136,266.236115 1853.454590,288.034668 
M1830.554443,254.041122 
	C1830.176880,253.330704 1829.701660,252.654861 1829.435913,251.904846 
	C1818.936401,222.268005 1808.513794,192.603775 1797.951660,162.989319 
	C1791.430786,144.705872 1784.494141,126.567291 1778.243896,108.193604 
	C1777.028564,104.620827 1775.156494,105.012650 1772.776001,105.010727 
	C1750.454468,104.992722 1728.132935,104.996216 1705.811401,105.010406 
	C1704.582642,105.011192 1703.353882,105.161819 1701.626953,105.275505 
	C1733.755005,184.537613 1765.670654,263.275543 1797.843262,342.647583 
	C1799.233765,341.633789 1800.503906,340.965942 1801.435791,339.978821 
	C1804.024780,337.235962 1806.377563,334.268158 1808.994019,331.553436 
	C1820.048340,320.084259 1831.087524,308.598145 1842.328003,297.313080 
	C1844.396606,295.236176 1844.523193,293.603027 1843.626587,291.087921 
	C1839.318604,279.004211 1835.168823,266.864136 1830.554443,254.041122 
M1104.280151,285.787201 
	C1090.563965,301.080475 1087.656250,318.858215 1093.663086,337.891479 
	C1101.623657,363.114868 1129.770020,377.340363 1155.444824,369.901093 
	C1181.420044,362.374786 1197.338257,334.337097 1190.472778,307.640228 
	C1185.784668,289.410126 1174.056274,277.183411 1156.090576,272.144043 
	C1136.820801,266.738922 1119.178955,270.361450 1104.280151,285.787201 
M702.001404,244.748184 
	C696.280762,264.982788 690.720032,285.265381 684.679871,305.404144 
	C683.688721,308.708862 684.691956,310.224152 686.628845,312.156860 
	C704.069092,329.559387 721.443054,347.028748 738.975464,364.337708 
	C740.412109,365.756042 742.868286,366.875610 744.858643,366.888275 
	C771.162659,367.055847 797.468201,367.003479 823.773315,366.987030 
	C824.822510,366.986359 825.871521,366.796204 827.642151,366.624298 
	C826.322754,365.077972 825.572205,364.058563 824.684204,363.177704 
	C785.014526,323.829620 745.333374,284.493256 705.648926,245.160095 
	C704.950562,244.467896 704.256042,243.734039 703.430664,243.231598 
	C703.195190,243.088257 702.504639,243.692444 702.001404,244.748184 
z"/>
<path fill="#121214" opacity="1.000000" stroke="none" 
	d="
M1417.531372,1.000000 
	C1418.000000,122.795372 1418.000000,244.590744 1418.000000,366.693054 
	C1394.740112,366.693054 1371.671875,366.693054 1348.232300,366.693054 
	C1348.159546,365.384003 1348.010620,363.950348 1348.010132,362.516632 
	C1347.997314,326.522522 1347.963257,290.528320 1348.044312,254.534424 
	C1348.055054,249.780258 1348.951538,245.027451 1348.951904,240.273987 
	C1348.953735,216.885803 1340.857666,196.827316 1322.907227,181.574844 
	C1310.660400,171.168808 1296.330200,165.492111 1279.890259,164.866974 
	C1262.994019,164.224472 1247.567627,167.950607 1234.051758,178.063629 
	C1219.281128,189.115524 1209.793335,203.832047 1206.026855,221.986740 
	C1202.950073,236.816208 1204.590210,251.120270 1210.923340,264.984406 
	C1217.363525,279.082581 1227.348877,289.813965 1240.460693,297.837341 
	C1255.085815,306.786682 1271.232300,308.271210 1287.725586,306.829254 
	C1293.687012,306.308044 1299.478882,303.847687 1305.627319,302.197235 
	C1313.593628,316.772186 1321.692627,331.592438 1329.794800,346.410980 
	C1331.203003,348.986694 1331.261230,350.396423 1328.186768,352.577423 
	C1311.162964,364.653656 1292.267944,369.613922 1271.599854,370.145691 
	C1252.554443,370.635712 1234.247192,367.911194 1216.581299,360.948212 
	C1211.499878,358.945374 1206.560547,356.499725 1201.811890,353.806122 
	C1200.887329,353.281738 1200.472290,350.424377 1200.966797,349.057251 
	C1205.374878,336.872955 1208.044556,324.599609 1206.370972,311.447540 
	C1202.110352,277.965057 1173.766235,254.308395 1139.299316,254.969788 
	C1137.337646,255.007431 1135.374512,254.974655 1133.219604,254.974655 
	C1130.346558,233.664108 1132.090088,213.096298 1138.963135,192.964584 
	C1146.875610,169.788940 1160.168701,150.134079 1178.532104,134.127899 
	C1197.421021,117.663757 1219.560669,106.799171 1244.256592,103.321510 
	C1270.184937,99.670258 1296.127563,100.385826 1319.989624,113.963013 
	C1331.363281,120.434525 1340.687134,129.060928 1349.000000,140.294800 
	C1349.000000,93.657730 1349.000000,47.797523 1349.000000,1.468657 
	C1371.687622,1.000000 1394.375122,1.000000 1417.531372,1.000000 
z"/>
<path fill="#121214" opacity="1.000000" stroke="none" 
	d="
M631.531372,1.000000 
	C632.000000,70.124374 632.000000,139.248749 632.000000,208.955688 
	C635.039612,206.468445 637.894897,204.431839 640.400452,202.030350 
	C651.661133,191.236954 662.811279,180.328339 674.022156,169.482864 
	C693.929749,150.224167 713.865112,130.994186 733.759705,111.722046 
	C738.619873,107.013939 743.793457,104.609535 751.114258,104.774475 
	C776.878296,105.354935 802.663330,105.000038 829.333313,106.109917 
	C827.959717,107.168999 826.452148,108.093369 825.231628,109.306473 
	C761.939880,172.211105 698.684570,235.152496 635.356873,298.020874 
	C632.951294,300.408966 631.880432,302.728912 631.911560,306.192810 
	C632.092468,326.310455 632.000000,346.430511 632.000000,366.773834 
	C608.579468,366.773834 585.515625,366.773834 562.000000,366.773834 
	C562.000000,245.073944 562.000000,123.505630 562.000000,1.468657 
	C585.020874,1.000000 608.041809,1.000000 631.531372,1.000000 
z"/>
<path fill="#121214" opacity="1.000000" stroke="none" 
	d="
M224.281616,134.777634 
	C225.577011,136.171951 226.608093,137.313126 227.861145,138.699997 
	C227.861145,127.550949 227.861145,116.633812 227.861145,105.358963 
	C251.153458,105.358963 274.221558,105.358963 298.000000,105.358963 
	C298.000000,106.671783 298.000000,108.251900 298.000000,109.832016 
	C298.000000,186.647537 298.218597,263.464172 297.820526,340.277649 
	C297.738220,356.158478 293.275360,371.542908 287.257080,386.318512 
	C280.466431,402.990448 271.057251,417.875031 258.604034,431.037048 
	C237.320419,453.531952 211.664734,467.773621 181.239731,472.941772 
	C139.435303,480.042847 101.199471,471.580780 67.098312,445.689667 
	C52.035877,434.253632 39.971672,420.362091 30.565369,404.056702 
	C30.178719,403.386475 30.108341,402.533783 29.881216,401.732941 
	C49.518208,393.149597 69.004921,384.631958 88.350769,376.175873 
	C101.457123,396.655212 120.162682,407.746338 143.512817,412.067566 
	C173.751572,417.663574 200.866669,402.177582 215.032547,378.160767 
	C221.967682,366.402954 226.702515,353.984833 226.938614,340.280792 
	C227.468262,309.538208 227.641495,278.789612 228.012924,248.044098 
	C228.153702,236.391296 227.778351,224.800858 223.986115,213.635147 
	C218.139725,196.421249 206.786575,183.743057 191.571594,174.122086 
	C176.958359,164.881638 160.822830,162.433853 144.178909,164.198578 
	C131.564301,165.536072 120.094261,170.884918 109.875946,178.612839 
	C94.205841,190.463821 85.010391,206.435135 82.197655,225.538651 
	C79.416206,244.429642 83.740494,261.969574 95.149544,277.806763 
	C107.290764,294.660339 123.681519,304.743561 143.723801,307.662872 
	C155.715240,309.409515 168.386551,309.243530 179.875168,303.488251 
	C183.327988,301.758545 184.410599,304.288147 185.500046,306.150421 
	C190.459320,314.627808 195.177673,323.246185 199.981018,331.814758 
	C203.361389,337.844940 206.739120,343.876617 210.111557,349.896088 
	C195.787125,362.423279 178.826508,368.938904 160.523270,370.684631 
	C147.500168,371.926758 134.260971,371.537140 121.051529,369.266144 
	C105.366829,366.569641 90.833908,361.176666 77.210632,353.472137 
	C64.307083,346.174622 52.668556,337.189087 42.881691,325.653564 
	C30.129732,310.623169 20.624281,294.069519 14.689050,275.324280 
	C9.521982,259.005096 7.891674,242.225983 9.133928,225.339218 
	C11.179067,197.538345 21.420071,172.571945 38.779804,150.909775 
	C58.190403,126.688454 83.735664,111.656647 113.707802,104.004936 
	C128.923447,100.120476 144.556488,99.913002 159.900345,101.279617 
	C180.174042,103.085320 198.922348,109.984039 214.022156,124.553185 
	C217.408401,127.820442 220.688400,131.197815 224.281616,134.777634 
z"/>
<path fill="#121214" opacity="1.000000" stroke="none" 
	d="
M1620.000000,213.000015 
	C1627.613892,213.000015 1634.727783,213.000015 1643.583862,213.000015 
	C1639.255127,205.072281 1636.139893,197.791443 1631.655151,191.484497 
	C1622.565552,178.701477 1610.719116,169.085129 1595.052612,165.604004 
	C1573.642456,160.846680 1554.086670,164.896164 1537.125977,179.376114 
	C1517.630615,196.020172 1510.158081,217.729752 1512.235962,242.543686 
	C1513.417114,256.647888 1519.268799,269.479675 1528.197632,280.852661 
	C1534.378052,288.724915 1541.937500,294.761353 1550.374390,299.754974 
	C1557.486694,303.964600 1565.198975,307.191681 1573.636475,306.903381 
	C1582.958252,306.584839 1592.439697,306.412109 1601.512329,304.535248 
	C1611.537720,302.461304 1618.894165,295.303589 1625.748047,287.907715 
	C1626.638184,286.947235 1628.845581,286.093658 1629.865845,286.532227 
	C1649.485962,294.967377 1669.020996,303.600494 1688.563599,312.215118 
	C1688.992432,312.404175 1689.305298,312.856445 1689.669678,313.183594 
	C1652.528198,368.854614 1573.340088,387.880585 1511.287964,352.955780 
	C1449.970337,318.444305 1426.879517,244.159988 1453.994141,182.294815 
	C1484.329468,113.081284 1560.686768,83.857040 1627.232910,109.404243 
	C1694.718506,135.312164 1725.704590,203.542664 1710.552002,267.000000 
	C1706.148193,267.000000 1701.667847,267.000000 1697.187500,267.000000 
	C1658.855713,267.000000 1620.523926,266.960541 1582.192383,267.064056 
	C1578.555664,267.073883 1576.757202,266.162628 1574.664795,262.681030 
	C1564.950562,246.517532 1554.537720,230.773972 1544.396851,214.866104 
	C1544.166016,214.504013 1544.195312,213.976135 1543.995972,213.000015 
	C1569.322144,213.000015 1594.411011,213.000015 1620.000000,213.000015 
z"/>
<path fill="#121214" opacity="1.000000" stroke="none" 
	d="
M515.742920,162.672302 
	C513.307678,166.697800 511.091949,170.413315 508.750275,174.340027 
	C494.016449,164.424927 477.850433,162.526794 461.389893,164.197433 
	C447.875000,165.569092 435.809265,171.201797 425.186066,180.136566 
	C414.559692,189.074036 407.176056,200.042770 402.726318,212.931534 
	C400.959381,218.049576 400.138885,223.739716 400.113861,229.175049 
	C399.911072,273.171783 400.000000,317.169800 400.000000,361.167450 
	C400.000000,362.966309 400.000000,364.765167 400.000000,366.773254 
	C375.908508,366.773254 352.172638,366.773254 328.218201,366.773254 
	C328.218201,279.560089 328.218201,192.493332 328.218201,105.213272 
	C352.118805,105.213272 375.854614,105.213272 400.007690,105.213272 
	C400.007690,115.756607 400.007690,126.123856 400.007690,137.219391 
	C414.920685,118.876724 432.650635,106.219406 455.656433,103.177422 
	C468.678986,101.455482 482.043152,100.414688 495.097809,101.317604 
	C511.537750,102.454689 527.276855,107.634087 542.012329,115.548828 
	C533.315613,131.177444 524.638977,146.769897 515.742920,162.672302 
z"/>
<path fill="#121214" opacity="1.000000" stroke="none" 
	d="
M1079.983154,367.000275 
	C1065.847900,367.000275 1052.210083,367.000275 1037.999878,367.000275 
	C1037.999878,365.008423 1037.999878,363.242920 1037.999878,361.477417 
	C1037.999878,315.496124 1038.166748,269.513733 1037.863647,223.534424 
	C1037.800537,213.955002 1036.777466,204.225143 1034.827515,194.849335 
	C1031.357910,178.165985 1020.479492,167.231873 1002.879089,165.052170 
	C981.490051,162.403305 968.945496,163.548065 952.802917,172.051987 
	C946.881470,161.801086 940.955627,151.540436 935.027466,141.281128 
	C932.855652,137.522507 930.717773,133.743500 928.489319,130.018707 
	C927.020935,127.564163 926.427734,125.643112 929.126160,123.254036 
	C941.030945,112.714241 954.990356,106.554413 970.298889,102.982765 
	C984.347412,99.705086 998.660583,100.451996 1012.757751,101.239639 
	C1032.603271,102.348465 1051.594971,107.506989 1068.376099,118.893173 
	C1084.776611,130.021164 1095.200928,145.748795 1100.752319,164.317108 
	C1104.340454,176.318420 1106.695801,188.909225 1107.758423,201.392929 
	C1109.354736,220.146133 1109.255127,239.040436 1110.074097,257.866119 
	C1110.217285,261.155304 1109.089722,263.026520 1106.394409,264.698364 
	C1077.255737,282.771637 1068.705078,319.017242 1082.057983,349.415680 
	C1084.730103,355.498962 1089.117554,360.828888 1093.027100,367.000275 
	C1088.649048,367.000275 1084.564819,367.000275 1079.983154,367.000275 
z"/>
<path fill="#121214" opacity="1.000000" stroke="none" 
	d="
M914.999817,363.829315 
	C915.477844,367.189087 913.606140,367.020691 911.659363,367.018250 
	C889.002930,366.989502 866.346497,366.999847 843.345093,366.999847 
	C843.345093,279.819092 843.345093,192.756104 843.345093,105.346451 
	C866.847412,105.346451 890.583557,105.346451 915.000000,105.346451 
	C915.000000,191.200562 915.000000,277.272461 914.999817,363.829315 
z"/>
<path fill="#121214" opacity="1.000000" stroke="none" 
	d="
M1853.705688,287.716309 
	C1861.489136,266.236115 1868.975708,245.057816 1876.564575,223.916245 
	C1888.541870,190.548737 1900.594238,157.208221 1912.598389,123.850304 
	C1914.445923,118.716476 1916.400635,113.607658 1917.922607,108.375778 
	C1918.719360,105.636391 1920.043213,104.930283 1922.755859,104.941742 
	C1946.579956,105.042458 1970.404663,105.000061 1994.707886,105.000061 
	C1958.889282,192.388077 1923.159790,279.558655 1887.398193,366.807373 
	C1867.081299,366.807373 1846.629517,366.807373 1825.578979,366.807373 
	C1834.955078,340.311859 1844.204834,314.173248 1853.705688,287.716309 
z"/>
<path fill="#121214" opacity="1.000000" stroke="none" 
	d="
M1830.758667,254.392578 
	C1835.168823,266.864136 1839.318604,279.004211 1843.626587,291.087921 
	C1844.523193,293.603027 1844.396606,295.236176 1842.328003,297.313080 
	C1831.087524,308.598145 1820.048340,320.084259 1808.994019,331.553436 
	C1806.377563,334.268158 1804.024780,337.235962 1801.435791,339.978821 
	C1800.503906,340.965942 1799.233765,341.633789 1797.843262,342.647583 
	C1765.670654,263.275543 1733.755005,184.537613 1701.626953,105.275505 
	C1703.353882,105.161819 1704.582642,105.011192 1705.811401,105.010406 
	C1728.132935,104.996216 1750.454468,104.992722 1772.776001,105.010727 
	C1775.156494,105.012650 1777.028564,104.620827 1778.243896,108.193604 
	C1784.494141,126.567291 1791.430786,144.705872 1797.951660,162.989319 
	C1808.513794,192.603775 1818.936401,222.268005 1829.435913,251.904846 
	C1829.701660,252.654861 1830.176880,253.330704 1830.758667,254.392578 
z"/>
<path fill="#131315" opacity="1.000000" stroke="none" 
	d="
M1104.525146,285.531433 
	C1119.178955,270.361450 1136.820801,266.738922 1156.090576,272.144043 
	C1174.056274,277.183411 1185.784668,289.410126 1190.472778,307.640228 
	C1197.338257,334.337097 1181.420044,362.374786 1155.444824,369.901093 
	C1129.770020,377.340363 1101.623657,363.114868 1093.663086,337.891479 
	C1087.656250,318.858215 1090.563965,301.080475 1104.525146,285.531433 
z"/>
<path fill="#121214" opacity="1.000000" stroke="none" 
	d="
M702.012085,244.351013 
	C702.504639,243.692444 703.195190,243.088257 703.430664,243.231598 
	C704.256042,243.734039 704.950562,244.467896 705.648926,245.160095 
	C745.333374,284.493256 785.014526,323.829620 824.684204,363.177704 
	C825.572205,364.058563 826.322754,365.077972 827.642151,366.624298 
	C825.871521,366.796204 824.822510,366.986359 823.773315,366.987030 
	C797.468201,367.003479 771.162659,367.055847 744.858643,366.888275 
	C742.868286,366.875610 740.412109,365.756042 738.975464,364.337708 
	C721.443054,347.028748 704.069092,329.559387 686.628845,312.156860 
	C684.691956,310.224152 683.688721,308.708862 684.679871,305.404144 
	C690.720032,285.265381 696.280762,264.982788 702.012085,244.351013 
z"/>
</svg>